<svg id="Layer_1" data-name="Layer 1" xmlns="http://www.w3.org/2000/svg" xmlns:xlink="http://www.w3.org/1999/xlink" viewBox="0 0 1920 1080"><defs><style>.cls-1{fill:none;}.cls-2{opacity:0.98;}.cls-3{clip-path:url(#clip-path);}.cls-4{fill:#f2ac02;}.cls-5{clip-path:url(#clip-path-2);}.cls-6{fill:#fff;}.cls-7{clip-path:url(#clip-path-3);}</style><clipPath id="clip-path"><rect class="cls-1" x="747.86" y="356.55" width="424.28" height="303.99"/></clipPath><clipPath id="clip-path-2"><rect class="cls-1" x="766.3" y="380.45" width="155.66" height="256.19"/></clipPath><clipPath id="clip-path-3"><rect class="cls-1" x="940.52" y="380.45" width="213.18" height="256.19"/></clipPath></defs><title>SVG</title><g class="cls-2"><g class="cls-3"><rect class="cls-4" x="747.86" y="356.55" width="424.27" height="303.99"/></g></g><g class="cls-2"><g class="cls-5"><path class="cls-6" d="M766.3,410.07V607a29.62,29.62,0,0,0,29.62,29.62h96.42A29.62,29.62,0,0,0,922,607V526.15H849.35v71.4H838.91v-178h10.44v71.39H922V410.07a29.62,29.62,0,0,0-29.62-29.62H795.92a29.62,29.62,0,0,0-29.62,29.62"/></g></g><g class="cls-2"><g class="cls-7"><polygon class="cls-6" points="1081.09 380.45 1064.33 380.45 1047.11 472.91 1029.88 380.45 1013.13 380.45 940.52 380.45 940.52 636.65 1013.13 636.65 1013.13 557.72 1030.56 636.65 1046.22 636.65 1047.99 636.65 1063.66 636.65 1081.09 557.72 1081.09 636.65 1153.7 636.65 1153.7 380.45 1081.09 380.45"/></g></g></svg>