<?xml version="1.0" encoding="utf-8"?>
<!-- Generator: Adobe Illustrator 24.3.0, SVG Export Plug-In . SVG Version: 6.00 Build 0)  -->
<svg version="1.1" id="Layer_1" xmlns="http://www.w3.org/2000/svg" xmlns:xlink="http://www.w3.org/1999/xlink" x="0px" y="0px"
	 viewBox="0 0 841.9 595.3" style="enable-background:new 0 0 841.9 595.3;" xml:space="preserve">
<style type="text/css">
	.st0{fill:#F2AC02;}
</style>
<g>
	<path class="st0" d="M180.5,260.9c0-3.5,157.8,0,157.8,0V82.2c0-33.9-27.5-61.4-61.4-61.4H62.3C27.9,20.7,0,48.7,0,83.1v432.6
		c0,34.1,27.7,61.8,61.8,61.8h214.7c34.1,0,61.8-27.7,61.8-61.8V337.4H180.5v155.2h-22.7V105.7h22.7V260.9z"/>
	<polygon class="st0" points="378.6,577.5 378.6,20.7 572.8,20.7 610.2,221.7 647.7,20.7 841.9,20.7 841.9,577.5 684.1,577.5 
		684.1,406 646.2,577.5 574.3,577.5 536.4,406 536.4,577.5 	"/>
</g>
</svg>
